PathFileType	4	(X/Y/Z)	C:/Users/opensim2020/Desktop/walking_exp_matlab/subject02_walking12_straight_01.trc																																																																																																																												
DataRate	CameraRate	NumFrames	NumMarkers	Units	OrigDataRate	OrigDataStartFrame	OrigNumFrames																																																																																																																								
100	100	6	42	mm	100	497	178																																																																																																																								
Frame#	Time	LFHD			RFHD			LBHD			RBHD			C7			T10			CLAV			STRN			RBAK			LSHO			LUPA			LELB			LFRM			LWRA			LWRB			LFIN			RSHO			RUPA			RELB			RFRM			RWRA			RWRB			RFIN			LASI			RASI			LPSI			RPSI			LTHI			LKNE			LTIB			LANK			LHEE			LTOE			RTHI			RKNE			RTIB			RANK			RHEE			RTOE			*39			*40			*41		
		X1	Y1	Z1	X2	Y2	Z2	X3	Y3	Z3	X4	Y4	Z4	X5	Y5	Z5	X6	Y6	Z6	X7	Y7	Z7	X8	Y8	Z8	X9	Y9	Z9	X10	Y10	Z10	X11	Y11	Z11	X12	Y12	Z12	X13	Y13	Z13	X14	Y14	Z14	X15	Y15	Z15	X16	Y16	Z16	X17	Y17	Z17	X18	Y18	Z18	X19	Y19	Z19	X20	Y20	Z20	X21	Y21	Z21	X22	Y22	Z22	X23	Y23	Z23	X24	Y24	Z24	X25	Y25	Z25	X26	Y26	Z26	X27	Y27	Z27	X28	Y28	Z28	X29	Y29	Z29	X30	Y30	Z30	X31	Y31	Z31	X32	Y32	Z32	X33	Y33	Z33	X34	Y34	Z34	X35	Y35	Z35	X36	Y36	Z36	X37	Y37	Z37	X38	Y38	Z38	X39	Y39	Z39	X40	Y40	Z40	X41	Y41	Z41	X42	Y42	Z42
																																																																																																																															
1	0	-1227.85693	1693.12805	-987.69812	-1245.22534	1660.23889	-844.68591	-1345.94824	1609.80957	-1019.74622	-1378.47131	1574.11206	-884.53778	-1413.83691	1479.46484	-958.32898	-1499.53259	1214.19836	-940.92261	-1285.68433	1396.8418	-977.65356	-1257.49915	1217.677	-979.87061	-1488.07544	1315.81921	-891.53149	-1351.99268	1450.35803	-1143.48096	-1364.6554	1261.60315	-1250.01819	-1351.30701	1123.4248	-1287.88684	-1292.65015	1003.98981	-1306.14331	-1189.30444	914.93695	-1283.47986	-1234.48145	895.72223	-1309.14807	-1191.03076	846.51544	-1317.6095	-1326.52429	1428.24963	-777.85254	-1388.70837	1256.26184	-684.78931	-1403.33447	1115.47107	-647.89087	-1395.35913	996.97852	-618.17786	-1371.14026	862.41675	-627.39813	-1415.88916	870.63477	-592.26324	-1389.13831	803.0567	-584.81421	-1339.86108	926.48273	-1105.40234	-1278.49353	922.34509	-853.35657	-1516.59827	993.49219	-974.95929	-1498.04578	992.35907	-864.1731	-1489.10278	635.34741	-1115.11548	-1566.32886	449.62842	-1065.19519	-1681.44714	293.57327	-1033.3429	-1742.9342	79.20798	-983.59045	-1767.65881	57.43095	-923.11206	-1609.12708	24.79943	-1045.07751	-1246.60266	647.87616	-780.94452	-1154.99805	468.48602	-840.12756	-1148.66394	280.99094	-839.87579	-1126.00793	92.44324	-883.41412	-1151.36267	32.40974	-941.75122	-968.14886	63.72065	-889.29602	-1344.72205	1740.63745	-905.83313	2845.77441	1034.24597	-3357.33472	NaN	NaN	NaN
2	0.01	-1219.06006	1693.01892	-988.67212	-1236.22852	1660.11523	-845.48077	-1336.51904	1608.92651	-1020.44031	-1368.77808	1573.36523	-885.17004	-1403.74475	1478.8717	-958.90698	-1489.52112	1213.63318	-942.14142	-1275.7959	1395.95081	-978.15973	-1247.49011	1216.93054	-980.22906	-1478.16089	1315.16455	-892.44476	-1341.48096	1449.61719	-1143.93494	-1354.31531	1260.82678	-1249.74536	-1341.57471	1122.1759	-1286.94263	-1282.19373	1003.185	-1304.88892	-1177.77527	915.29724	-1281.05835	-1225.9696	896.80243	-1305.59497	-1178.83228	846.77686	-1314.87073	-1316.81543	1427.32532	-778.21326	-1380.13928	1255.42468	-685.80389	-1395.57141	1114.77637	-648.90356	-1388.98376	996.53845	-618.24738	-1365.25012	861.58252	-626.62433	-1410.49097	870.46027	-592.24304	-1384.32813	802.62701	-584.04974	-1329.75598	924.75787	-1105.85193	-1268.95776	921.4942	-853.36029	-1507.22949	993.36523	-975.9859	-1488.71875	992.13251	-865.23822	-1481.31384	635.12604	-1115.83972	-1559.88574	450.13455	-1066.46484	-1677.30298	295.87958	-1034.72607	-1742.10718	82.44442	-985.24487	-1767.70422	62.4217	-924.9137	-1609.12878	24.79577	-1045.31616	-1236.56677	647.19073	-780.62476	-1145.99109	467.7514	-840.24652	-1143.95203	280.16327	-840.70398	-1124.23706	91.33174	-885.28668	-1149.94556	31.84597	-944.3916	-967.37964	61.05304	-888.24561	-1335.78577	1739.77881	-906.09839	2845.25146	1034.26733	-3360.30908	NaN	NaN	NaN
3	0.02	-1209.90894	1693.1051	-989.34674	-1227.04968	1660.34387	-846.14209	-1326.94873	1608.32642	-1021.03473	-1359.03784	1572.81665	-885.71777	-1393.68542	1478.72852	-959.31964	-1479.21167	1213.20996	-943.21411	-1265.23291	1395.63013	-978.17743	-1237.20386	1216.44287	-980.38135	-1467.89661	1314.55811	-893.16211	-1330.59607	1448.99023	-1144.2345	-1343.69165	1260.28552	-1249.19421	-1331.67407	1120.76428	-1286.06775	-1271.83789	1002.45514	-1303.33252	-1166.63	915.73169	-1278.88354	-1212.15857	895.16595	-1304.10791	-1167.09998	846.94141	-1312.37048	-1306.08679	1426.67712	-778.57062	-1371.5061	1254.77625	-686.41754	-1387.6687	1114.40881	-649.88159	-1382.02722	996.24432	-618.77185	-1359.50342	861.33527	-626.11334	-1404.82031	870.4295	-592.54749	-1379.12476	802.66333	-583.57819	-1319.14465	923.3609	-1106.07239	-1258.91321	920.9762	-853.26239	-1496.85254	993.0824	-976.98901	-1478.79749	992.06018	-866.19177	-1473.06812	635.12341	-1116.51807	-1552.58972	450.36771	-1067.7301	-1672.59131	298.4346	-1036.49292	-1741.0094	86.20891	-987.20825	-1767.44568	67.53273	-926.97668	-1609.04187	24.64003	-1045.72876	-1226.01038	646.57397	-780.24377	-1137.64624	466.63904	-840.17834	-1139.83435	279.19089	-841.57135	-1123.36426	90.1184	-887.13049	-1148.85107	30.8701	-946.65369	-967.31653	58.13685	-887.40924	-1326.97168	1739.31042	-906.87524	NaN	NaN	NaN	NaN	NaN	NaN
4	0.03	-1200.61255	1693.46716	-989.79529	-1217.65845	1660.83716	-846.71088	-1317.29822	1608.0177	-1021.49036	-1349.18884	1572.55603	-886.09229	-1383.26953	1478.61304	-959.62616	-1468.68445	1212.9491	-944.17151	-1254.93408	1395.54138	-978.32452	-1226.8584	1216.27271	-980.91632	-1457.65674	1314.5177	-893.88922	-1319.52185	1448.7981	-1144.5	-1333.10303	1260.1925	-1248.78943	-1322.30835	1120.49438	-1284.52759	-1261.79248	1002.14404	-1300.96753	-1155.9071	916.06525	-1276.71985	-1202.99854	895.55219	-1300.71606	-1155.9646	847.30341	-1309.49548	-1296.40198	1426.45251	-778.51245	-1362.76819	1254.81934	-686.96484	-1379.65906	1114.38782	-650.88599	-1374.83545	996.26239	-619.32294	-1352.17627	860.89978	-626.328	-1398.61194	870.63135	-593.0368	-1373.46387	802.68695	-583.51062	-1308.13062	922.34155	-1106.16797	-1248.47656	920.91479	-853.14215	-1485.93787	992.90973	-977.95099	-1468.32568	992.21222	-866.96252	-1464.34241	635.45837	-1117.16748	-1544.79175	451.2258	-1069.31384	-1667.18982	301.20007	-1038.55945	-1739.50952	90.36091	-989.32166	-1766.38416	72.80589	-929.12976	-1608.9696	24.6444	-1046.00427	-1215.16309	646.08868	-778.9118	-1130.02209	465.75067	-839.99585	-1136.28284	278.11786	-842.56409	-1123.34412	88.87235	-888.77649	-1149.08313	29.82493	-948.92432	-968.09381	55.0676	-886.74371	-1317.91943	1738.90894	-907.45367	2845.29883	1034.11951	-3360.34619	NaN	NaN	NaN
5	0.04	-1191.41455	1694.08435	-990.61682	-1208.09668	1661.5542	-847.32544	-1307.58411	1607.97046	-1021.79022	-1339.24341	1572.68994	-886.32312	-1372.53955	1478.44287	-959.75092	-1457.76904	1212.81653	-944.85333	-1244.16846	1395.71838	-978.12109	-1214.82556	1216.35791	-979.93597	-1446.92712	1314.3064	-894.35052	-1308.61108	1448.87854	-1144.37122	-1322.27893	1260.27759	-1247.81396	-1312.52673	1120.17468	-1282.89172	-1252.03406	1001.87787	-1299.11218	-1145.6355	916.41296	-1274.6499	-1190.97351	894.36578	-1298.93066	-1145.38574	847.40271	-1306.87964	-1286.00635	1426.39417	-778.54895	-1352.2843	1254.60645	-687.27325	-1370.62439	1114.48376	-652.02502	-1367.40588	996.44897	-619.93427	-1345.58765	861.30402	-626.15802	-1391.8595	871	-593.80853	-1367.323	803.01093	-583.75458	-1296.45154	921.81097	-1106.30042	-1237.24268	921.22882	-852.98358	-1474.43652	992.82324	-978.76062	-1457.30688	992.47504	-867.54156	-1454.83655	635.87311	-1117.96069	-1536.17542	452.1647	-1071.03955	-1661.01672	304.23801	-1040.8689	-1737.73291	95.13743	-991.66058	-1765.05359	79.1174	-931.65668	-1608.88049	24.51673	-1046.49402	-1205.10608	645.8725	-778.32501	-1121.6781	464.26395	-840.09308	-1132.98035	276.79355	-843.43506	-1123.87634	87.26437	-890.20099	-1149.15295	27.44099	-950.62201	-969.43311	51.86798	-886.01398	-1308.72119	1739.30676	-908.14148	2845.9231	1034.23572	-3356.7998	NaN	NaN	NaN
6	0.05	-1181.95557	1694.84485	-990.97272	-1198.39331	1662.60095	-847.7478	-1297.86609	1608.1825	-1021.91931	-1329.16394	1573.11914	-886.37268	-1362.4209	1478.74829	-959.64996	-1446.60107	1212.7998	-945.30048	-1233.57666	1396.17236	-977.76532	-1203.47656	1217.05103	-979.64783	-1436.08142	1314.20691	-894.63721	-1297.59521	1449.39465	-1144.073	-1311.50769	1260.65137	-1246.68286	-1302.91284	1120.40698	-1280.97144	-1242.01929	1001.35254	-1296.58167	-1135.81885	916.6488	-1272.55457	-1181.34729	894.3194	-1296.49036	-1135.34229	847.49927	-1304.07617	-1275.73096	1427.04895	-778.32306	-1342.15503	1255.14185	-687.42706	-1361.89404	1114.97815	-653.086	-1358.94873	996.97211	-620.84448	-1337.63574	861.50415	-626.86182	-1384.68347	871.67291	-594.75555	-1360.54578	803.31854	-584.44965	-1283.73499	921.3905	-1106.03772	-1225.79016	922.05084	-852.90912	-1462.41956	992.85583	-979.32758	-1445.7356	992.84076	-867.91992	-1444.67468	636.68665	-1118.82373	-1527.06018	453.87988	-1072.9447	-1654.27124	307.76596	-1043.1969	-1735.40027	100.35783	-994.14069	-1763.11389	85.75938	-934.02899	-1608.74451	24.44191	-1046.95886	-1195.4823	645.41095	-778.3183	-1114.49341	462.66449	-840.37195	-1129.95776	275.11697	-844.01331	-1124.26575	85.24601	-891.25061	-1150.28052	25.83978	-950.96899	-970.64716	48.21142	-885.11316	-1299.39429	1739.81445	-908.65094	2846.00024	1034.24365	-3356.82715	NaN	NaN	NaN
